HIERARCHY
ROOT Hips
{
	OFFSET 0.00000 0.00000 0.00000
	CHANNELS 6 Xposition Yposition Zposition Zrotation Yrotation Xrotation 
	JOINT LHipJoint
	{
		OFFSET 0 0 0
		CHANNELS 3 Zrotation Yrotation Xrotation
		JOINT LeftHip
		{
			OFFSET 1.48831 -1.59570 0.95625
			CHANNELS 3 Zrotation Yrotation Xrotation
			JOINT LeftKnee
			{
				OFFSET 2.20856 -6.06797 0.00000
				CHANNELS 3 Zrotation Yrotation Xrotation
				JOINT LeftAnkle
				{
					OFFSET 2.62924 -7.22379 0.00000
					CHANNELS 3 Zrotation Yrotation Xrotation
					JOINT LeftToe
					{
						OFFSET 0.16802 -0.46163 2.41673
						CHANNELS 3 Zrotation Yrotation Xrotation
						End Site
						{
							OFFSET 0.00000 -0.00000 1.23760
						}
					}
				}
			}
		}
	}
	JOINT RHipJoint
	{
		OFFSET 0 0 0
		CHANNELS 3 Zrotation Yrotation Xrotation
		JOINT RightHip
		{
			OFFSET -1.56796 -1.59570 0.95625
			CHANNELS 3 Zrotation Yrotation Xrotation
			JOINT RightKnee
			{
				OFFSET -2.29239 -6.29829 0.00000
				CHANNELS 3 Zrotation Yrotation Xrotation
				JOINT RightAnkle
				{
					OFFSET -2.66963 -7.33475 0.00000
					CHANNELS 3 Zrotation Yrotation Xrotation
					JOINT RightToe
					{
						OFFSET -0.18185 -0.49964 2.34359
						CHANNELS 3 Zrotation Yrotation Xrotation
						End Site
						{
							OFFSET -0.00000 -0.00000 1.20477
						}
					}
				}
			}
		}
	}
	JOINT lowerback
	{
		OFFSET 0 0 0
		CHANNELS 3 Zrotation Yrotation Xrotation
		JOINT Chest
		{
			OFFSET 0.03505 2.15832 -0.34324
			CHANNELS 3 Zrotation Yrotation Xrotation
			JOINT Chest2
			{
				OFFSET -0.01089 2.17963 0.04689
				CHANNELS 3 Zrotation Yrotation Xrotation
				JOINT lowerneck
				{
					OFFSET 0 0 0
					CHANNELS 3 Zrotation Yrotation Xrotation
					JOINT Neck
					{
						OFFSET 0.04686 1.69404 0.22159
						CHANNELS 3 Zrotation Yrotation Xrotation
						JOINT Head
						{
							OFFSET 0.00265 1.69305 -0.01513
							CHANNELS 3 Zrotation Yrotation Xrotation
							End Site
							{
								OFFSET -0.00415 1.80215 -0.03034
							}
						}
					}
				}
				JOINT LeftCollar
				{
					OFFSET 0 0 0
					CHANNELS 3 Zrotation Yrotation Xrotation
					JOINT LeftShoulder
					{
						OFFSET 3.67184 1.11724 -0.19002
CHANNELS 3 Zrotation Xrotation Yrotation
						JOINT LeftElbow
						{
OFFSET 0 -5.177140 -0.000000
CHANNELS 3 Zrotation Xrotation Yrotation
							JOINT LeftWrist
							{
OFFSET 0 -3.436790 -0.000000
CHANNELS 3 Zrotation Xrotation Yrotation
								JOINT lhand
								{
									OFFSET 0 0 0
CHANNELS 3 Zrotation Xrotation Yrotation
									JOINT LFingers
									{
OFFSET 0 -0.573120 -0.000000
CHANNELS 3 Zrotation Xrotation Yrotation
										End Site
										{
OFFSET 0 -0.462060 -0.000000
										}
									}
								}
								JOINT LThumb
								{
OFFSET 0 0.000000 0.000000
CHANNELS 3 Zrotation Xrotation Yrotation
									End Site
									{
OFFSET 0 -0.469120 0.469120
									}
								}
							}
						}
					}
				}
				JOINT RightCollar
				{
					OFFSET 0 0 0
					CHANNELS 3 Zrotation Yrotation Xrotation
					JOINT RightShoulder
					{
						OFFSET -3.59596 0.95831 -0.26050
CHANNELS 3 Zrotation Xrotation Yrotation
						JOINT RightElbow
						{
OFFSET 0 -5.239080 -0.000000
CHANNELS 3 Zrotation Xrotation Yrotation
							JOINT RightWrist
							{
OFFSET 0 -3.464850 -0.000000
CHANNELS 3 Zrotation Xrotation Yrotation
								JOINT rhand
								{
									OFFSET 0 0 0
CHANNELS 3 Zrotation Xrotation Yrotation
									JOINT RFingers
									{
OFFSET 0 -0.608750 -0.000000
CHANNELS 3 Zrotation Xrotation Yrotation
										End Site
										{
OFFSET 0 -0.490790 -0.000000
										}
									}
								}
								JOINT RThumb
								{
OFFSET 0 0.000000 0.000000
CHANNELS 3 Zrotation Xrotation Yrotation
									End Site
									{
OFFSET 0 -0.498290 0.498290
									}
								}
							}
						}
					}
				}
			}
		}
	}
}
MOTION
Frames: 7
Frame Time: 0.008333333333333333
5.245445 16.264228 -24.056428 -176.048912 -46.635491 197.033290 0.000000 0.000000 0.000000 -14.992559 -8.240480 -40.864048 4.564107 12.875459 38.903999 0.971638 -0.867563 -18.361128 0.122346 -2.254676 -6.210167 0.000000 0.000000 0.000000 16.520185 25.499133 -43.650320 -5.464220 -13.888233 42.791586 -0.796212 -3.247957 -18.335900 -0.252041 -3.230163 8.920219 2.864312 -1.914524 29.113911 0.688653 -2.321509 5.424328 0.032446 -1.482395 -10.022879 2.919615 -0.106933 -4.261378 0.735582 -0.477617 7.143277 -0.289097 -0.159032 3.022243 0.000000 0.000000 0.000000 9.931708 6.131501 -38.147329 23.171677 -34.275945 7.234777 17.754637 -23.531693 -4.982004 0.000000 0.000000 0.000000 -7.125000 0.000000 0.000000 -7.406070 35.131433 -1.807545 0.000000 0.000000 0.000000 -7.851187 1.453484 35.544486 -21.082423 -31.924442 -6.093546 -11.376531 6.266512 5.597451 0.000000 0.000000 0.000000 7.125000 0.000000 0.000000 12.733113 35.444835 3.051448
5.218702 16.270806 -24.107576 -175.983965 -46.679935 196.955207 0.000000 0.000000 0.000000 -14.928263 -8.148280 -40.570386 4.544345 12.851522 38.815171 0.982240 -0.710293 -18.509682 0.137384 -2.389314 -6.582775 0.000000 0.000000 0.000000 16.813143 25.310367 -43.339346 -5.442725 -13.865664 42.701977 -0.813930 -3.036629 -18.402503 -0.254979 -3.248837 8.972371 2.807886 -1.943535 28.994567 0.730544 -2.352959 5.301926 0.122192 -1.487844 -10.101135 3.033698 -0.055568 -4.319814 0.629325 -0.418004 7.329852 -0.341804 -0.128981 3.098044 0.000000 0.000000 0.000000 10.280905 6.390958 -38.371621 23.518065 -34.650385 7.430791 17.867980 -23.669896 -4.909526 0.000000 0.000000 0.000000 -7.125000 0.000000 0.000000 -7.304230 35.061303 -1.794913 0.000000 0.000000 0.000000 -7.997047 1.700892 35.053657 -20.843537 -31.645280 -5.967646 -11.414493 6.515126 5.854647 0.000000 0.000000 0.000000 7.125000 0.000000 0.000000 12.747649 35.702512 2.973154
5.199313 16.278377 -24.148313 -175.962349 -46.719113 197.034548 0.000000 0.000000 0.000000 -14.894680 -8.066908 -40.485431 4.522901 12.825494 38.718788 0.973679 -0.646466 -18.447383 0.132813 -2.349218 -6.471761 0.000000 0.000000 0.000000 16.945696 25.256614 -43.233622 -5.426015 -13.848048 42.632090 -0.822440 -2.969115 -18.453071 -0.253631 -3.240256 8.948470 2.772851 -1.950295 28.885178 0.752716 -2.365709 5.272381 0.168478 -1.489735 -10.078621 3.118906 -0.041355 -4.256602 0.633519 -0.404665 7.323493 -0.354535 -0.120780 3.084221 0.000000 0.000000 0.000000 10.621445 6.463272 -38.533248 23.827415 -34.981139 7.607352 17.818820 -23.814868 -4.863768 0.000000 0.000000 0.000000 -7.125000 0.000000 0.000000 -7.339435 35.011365 -1.812715 0.000000 0.000000 0.000000 -8.055721 1.886022 34.567154 -20.824232 -31.622628 -5.957520 -11.557036 6.619066 6.109643 0.000000 0.000000 0.000000 7.125000 0.000000 0.000000 12.676580 35.963787 2.873239
5.186856 16.285063 -24.178813 -175.995354 -46.761067 197.241947 0.000000 0.000000 0.000000 -14.890754 -8.054888 -40.526453 4.497178 12.794134 38.602688 0.958139 -0.616933 -18.306615 0.112687 -2.163895 -5.958737 0.000000 0.000000 0.000000 16.942249 25.291849 -43.290216 -5.416401 -13.837901 42.591975 -0.827290 -3.003110 -18.520657 -0.253000 -3.236527 8.937954 2.729539 -1.954435 28.819308 0.760935 -2.388765 5.311195 0.207499 -1.499651 -10.000002 3.219197 -0.055408 -4.110739 0.642769 -0.423299 7.196458 -0.368795 -0.129090 3.012949 0.000000 0.000000 0.000000 10.877871 6.450059 -38.512427 24.116667 -35.287282 7.773792 17.905631 -23.865710 -4.861878 0.000000 0.000000 0.000000 -7.125000 0.000000 0.000000 -7.267652 35.013404 -1.794401 0.000000 0.000000 0.000000 -8.103313 2.055339 34.440285 -21.025729 -31.858347 -6.063545 -11.680839 6.633261 6.476071 0.000000 0.000000 0.000000 7.125000 0.000000 0.000000 12.641505 36.335189 2.747665
5.179062 16.288204 -24.200301 -176.040828 -46.749828 197.537564 0.000000 0.000000 0.000000 -14.884771 -8.072866 -40.680385 4.475148 12.767161 38.503036 0.949182 -0.680915 -18.199703 0.087703 -1.909248 -5.255054 0.000000 0.000000 0.000000 16.852107 25.385408 -43.504780 -5.416886 -13.838407 42.593928 -0.832148 -3.008208 -18.572638 -0.254348 -3.244753 8.960985 2.672888 -1.956862 28.772615 0.765476 -2.419969 5.388379 0.252556 -1.515059 -9.886798 3.314148 -0.044119 -3.989347 0.584555 -0.404498 7.125716 -0.402660 -0.120665 2.966288 0.000000 0.000000 0.000000 11.020314 6.428575 -38.364688 24.392909 -35.577050 7.933988 18.172751 -23.958371 -4.901209 0.000000 0.000000 0.000000 -7.125000 0.000000 0.000000 -7.052161 35.066599 -1.731243 0.000000 0.000000 0.000000 -8.190276 2.118007 34.718227 -21.258724 -32.129091 -6.186966 -11.641466 6.534576 6.745004 0.000000 0.000000 0.000000 7.125000 0.000000 0.000000 12.723794 36.600448 2.681972
5.171132 16.289285 -24.215224 -176.036723 -46.620290 197.856474 0.000000 0.000000 0.000000 -14.839171 -8.064989 -40.959828 4.469014 12.759656 38.475339 0.941031 -0.798835 -18.084864 0.065849 -1.654944 -4.552928 0.000000 0.000000 0.000000 16.752615 25.518281 -43.810479 -5.416916 -13.838488 42.594265 -0.833986 -2.935190 -18.552490 -0.259255 -3.275699 9.047330 2.665877 -1.935382 28.723019 0.745201 -2.409197 5.465464 0.225856 -1.513118 -9.774340 3.377851 -0.008127 -3.871930 0.518661 -0.352703 7.127029 -0.432706 -0.096480 2.945532 0.000000 0.000000 0.000000 11.113890 6.413751 -38.242176 24.551506 -35.742120 8.026430 18.302617 -24.082932 -4.955212 0.000000 0.000000 0.000000 -7.125000 0.000000 0.000000 -6.951227 35.128826 -1.695556 0.000000 0.000000 0.000000 -8.254129 2.101708 35.074905 -21.415803 -32.310497 -6.270750 -11.439718 6.240685 6.615164 0.000000 0.000000 0.000000 7.125000 0.000000 0.000000 12.865971 36.459565 2.758533
5.160370 16.291923 -24.228476 -176.007000 -46.419732 198.133912 0.000000 0.000000 0.000000 -14.808284 -7.978975 -41.246236 4.470000 12.760862 38.479809 0.934462 -0.897520 -17.990611 0.051777 -1.468105 -4.037792 0.000000 0.000000 0.000000 16.682072 25.642105 -44.060837 -5.408254 -13.829339 42.557886 -0.832639 -2.806493 -18.471751 -0.266500 -3.320929 9.173617 2.696254 -1.901670 28.736782 0.689918 -2.372747 5.525752 0.131880 -1.500739 -9.714940 3.445220 0.023876 -3.754466 0.465173 -0.310579 7.206349 -0.460037 -0.076324 2.951230 0.000000 0.000000 0.000000 11.165008 6.475755 -38.076338 24.597629 -35.789952 8.053476 18.251937 -24.071885 -4.991055 0.000000 0.000000 0.000000 -7.125000 0.000000 0.000000 -6.997016 35.163962 -1.700946 0.000000 0.000000 0.000000 -8.225310 2.081693 35.384396 -21.539478 -32.452624 -6.336974 -11.393831 6.030450 6.444241 0.000000 0.000000 0.000000 7.125000 0.000000 0.000000 12.872101 36.287156 2.815399
